<?xml version="1.0" encoding="utf-8"?>
<!-- Generator: Adobe Illustrator 27.5.0, SVG Export Plug-In . SVG Version: 6.00 Build 0)  -->
<svg version="1.1" xmlns="http://www.w3.org/2000/svg" xmlns:xlink="http://www.w3.org/1999/xlink" x="0px" y="0px"
	 viewBox="0 0 3710 3710" style="enable-background:new 0 0 3710 3710;" xml:space="preserve">
<g id="Illustration">
	<g>
		<linearGradient id="SVGID_1_" gradientUnits="userSpaceOnUse" x1="3389.4797" y1="3474.8521" x2="1425.6561" y2="1355.1692">
			<stop  offset="0" style="stop-color:#DAE3FE"/>
			<stop  offset="1" style="stop-color:#E9EFFD"/>
		</linearGradient>
		<path style="fill:url(#SVGID_1_);" d="M3115.808,2266.924c-269.844,630.728-982.144,901.641-1540.242,855.449
			c-152.384-12.612-458.982-37.988-698.378-264.376c-459.742-434.764-388.937-1343.541,51.168-1878.579
			c56.676-68.902,448.982-530.536,1060.317-524.358c447.586,4.524,761.743,257.36,799.943,288.858
			c48.257,39.791,154.693,134.347,250.617,284.354C3264.621,1380.739,3284.433,1872.782,3115.808,2266.924z"/>
		<g>
			<g>
				
					<linearGradient id="SVGID_00000147205000190208802190000011065319493480782257_" gradientUnits="userSpaceOnUse" x1="3106.2695" y1="367.9753" x2="1621.624" y2="2275.3679">
					<stop  offset="0" style="stop-color:#09005D"/>
					<stop  offset="1" style="stop-color:#1A0F91"/>
				</linearGradient>
				<path style="fill:url(#SVGID_00000147205000190208802190000011065319493480782257_);" d="M482.47,1285.843v1331.599
					c0,109.542,87.292,199.121,196.797,201.945c486.364,12.541,1905.998,42.952,2368.985,36.126
					c79.575-1.173,144.039-64.852,146.334-144.403c8.928-309.349,23.427-1053.228-30.231-1398.583
					c-11.3-72.728-72.688-127.112-146.251-129.465c-407.512-13.037-1929.322-54.432-2392.093-44.039
					C546.2,1140.816,482.47,1206.011,482.47,1285.843z"/>
				
					<linearGradient id="SVGID_00000005224182446714504870000010093970357680684444_" gradientUnits="userSpaceOnUse" x1="1039.6847" y1="2678.9128" x2="3384.9185" y2="474.5959">
					<stop  offset="0" style="stop-color:#FE7062"/>
					<stop  offset="1" style="stop-color:#FF928E"/>
				</linearGradient>
				<path style="fill:url(#SVGID_00000005224182446714504870000010093970357680684444_);" d="M566.024,1279.361v1265.111
					c0,63.957,51.34,116.07,115.289,117.026l2300.331,31.897c63.401,0.948,115.371-50.061,115.607-113.469l4.319-1253.808
					c0.169-45.338-35.951-82.487-81.276-83.59l-2361.815-53.4C607.785,1187.895,566.024,1228.653,566.024,1279.361z"/>
			</g>
		</g>
		<g>
			
				<linearGradient id="SVGID_00000152222897051350218240000009016787417776907437_" gradientUnits="userSpaceOnUse" x1="-1969.0916" y1="3073.781" x2="-2564.9983" y2="3721.9609" gradientTransform="matrix(-1 0 0 1 162.1227 0)">
				<stop  offset="0" style="stop-color:#09005D"/>
				<stop  offset="1" style="stop-color:#1A0F91"/>
			</linearGradient>
			<path style="fill:url(#SVGID_00000152222897051350218240000009016787417776907437_);" d="M2319.581,3122.067
				c0,0,6.171,34.937,9.198,69.521c1.183,13.515-9.239,25.251-22.794,25.816c-46.056,1.919-144.571,5.648-179.921,4.071
				c-5.314-0.237-8.789-5.677-6.822-10.62l0,0c1.648-4.142,4.826-7.49,8.876-9.352l162.729-74.79L2319.581,3122.067z"/>
			
				<linearGradient id="SVGID_00000081606486763782960200000005608614155890865333_" gradientUnits="userSpaceOnUse" x1="-2162.5139" y1="3121.9226" x2="-2109.5828" y2="3121.9226" gradientTransform="matrix(-1 0 0 1 162.1227 0)">
				<stop  offset="0" style="stop-color:#FEBBBA"/>
				<stop  offset="1" style="stop-color:#FF928E"/>
			</linearGradient>
			<path style="fill:url(#SVGID_00000081606486763782960200000005608614155890865333_);" d="M2324.637,3101.539l-4.958,41.789
				c0,0-28.507,13.27-47.974-1.672l11.804-46.571L2324.637,3101.539z"/>
			
				<linearGradient id="SVGID_00000155864754367365029750000016742835035057475468_" gradientUnits="userSpaceOnUse" x1="2380.7153" y1="2453.5706" x2="2285.0935" y2="3324.2297">
				<stop  offset="0" style="stop-color:#09005D"/>
				<stop  offset="1" style="stop-color:#1A0F91"/>
			</linearGradient>
			<path style="fill:url(#SVGID_00000155864754367365029750000016742835035057475468_);" d="M2320.911,2315.885
				c2.141,10.913,11.496,544.587-45.549,783.745c-0.932,3.902,1.046,7.924,4.76,9.441c8.75,3.575,25.903,8.752,46.459,9.443
				c6.366,0.213,12.075-3.924,13.87-10.035c16.306-55.488,94.444-333.5,104.637-599.076c11.39-296.756,0-10.105,0-10.105
				l-6.68-183.436L2320.911,2315.885z"/>
			
				<linearGradient id="SVGID_00000160151447879453436690000013644259154316692379_" gradientUnits="userSpaceOnUse" x1="-2102.7754" y1="2950.8813" x2="-2698.6792" y2="3599.0579" gradientTransform="matrix(-1 0 0 1 162.1227 0)">
				<stop  offset="0" style="stop-color:#09005D"/>
				<stop  offset="1" style="stop-color:#1A0F91"/>
			</linearGradient>
			<path style="fill:url(#SVGID_00000160151447879453436690000013644259154316692379_);" d="M2506.773,3140.292
				c0,0,9.824,17.638,19.334,64.505c1.716,8.464-4.197,16.564-12.792,17.41c-15.207,1.495-38.619,3.418-57.373,3.289
				c-8.645-0.06-15.392-7.587-14.35-16.169c2.077-17.107,8.548-45.174,28.541-67.049L2506.773,3140.292z"/>
			
				<linearGradient id="SVGID_00000114778534557494773280000009520700966868927135_" gradientUnits="userSpaceOnUse" x1="-2353.2786" y1="3119.2083" x2="-2307.5776" y2="3119.2083" gradientTransform="matrix(-1 0 0 1 162.1227 0)">
				<stop  offset="0" style="stop-color:#FEBBBA"/>
				<stop  offset="1" style="stop-color:#FF928E"/>
			</linearGradient>
			<path style="fill:url(#SVGID_00000114778534557494773280000009520700966868927135_);" d="M2515.401,3086.542l-11.586,63.197
				c0,0-11.455,8.521-34.115,2.344l5.529-67.995L2515.401,3086.542z"/>
			
				<linearGradient id="SVGID_00000032619936904286526410000000180155511467540909_" gradientUnits="userSpaceOnUse" x1="2447.3704" y1="2460.8914" x2="2351.7485" y2="3331.55">
				<stop  offset="0" style="stop-color:#09005D"/>
				<stop  offset="1" style="stop-color:#1A0F91"/>
			</linearGradient>
			<path style="fill:url(#SVGID_00000032619936904286526410000000180155511467540909_);" d="M2546.699,2332.262
				c46.657,281.571-10.12,695.926-29.269,777.025c-1.173,4.964-5.179,8.769-10.212,9.603c-8.547,1.417-22.619,2.573-36.492-1.457
				c-4.78-1.387-8.138-5.699-8.333-10.673c-2.569-65.567,2.055-468.08-41.417-627.156c-2.204-8.062-7.127-15.092-13.938-19.934
				l-84.377-59.985l-6.469-96.961L2546.699,2332.262z"/>
			
				<linearGradient id="SVGID_00000028312383484369966830000001009066363343107243_" gradientUnits="userSpaceOnUse" x1="2312.8879" y1="1678.6713" x2="2718.8799" y2="2665.1326">
				<stop  offset="0" style="stop-color:#4042E2"/>
				<stop  offset="1" style="stop-color:#4F52FF"/>
			</linearGradient>
			<path style="fill:url(#SVGID_00000028312383484369966830000001009066363343107243_);" d="M2271.706,1808.782
				c0,0,214.334-53.415,364.229,25.97l-89.236,497.51c0,0-141.968,11.445-230.508-16.719L2271.706,1808.782z"/>
			
				<linearGradient id="SVGID_00000035533077509340494530000005599567007536551044_" gradientUnits="userSpaceOnUse" x1="-2664.8684" y1="2108.6201" x2="-2539.3225" y2="2108.6201" gradientTransform="matrix(-0.9887 0.1496 0.1496 0.9887 -426.1983 52.3657)">
				<stop  offset="0" style="stop-color:#FEBBBA"/>
				<stop  offset="1" style="stop-color:#FF928E"/>
			</linearGradient>
			<path style="fill:url(#SVGID_00000035533077509340494530000005599567007536551044_);" d="M2512.088,1659.727l16.401,141.177
				c1.047,1.997,0.535,4.462-1.254,5.835c-10.987,8.445-51.287,34.145-108.341,9.015c-5.943-2.618-10.484-7.666-12.271-13.911
				l23.21-122.351L2512.088,1659.727z"/>
			<g>
				
					<linearGradient id="SVGID_00000171698653885735621070000013789661041588507564_" gradientUnits="userSpaceOnUse" x1="-8015.3486" y1="-2864.49" x2="-8065.9111" y2="-3031.2561" gradientTransform="matrix(-0.9037 -0.428 -0.428 0.9037 -6083.8638 853.2395)">
					<stop  offset="0" style="stop-color:#FEBBBA"/>
					<stop  offset="1" style="stop-color:#FF928E"/>
				</linearGradient>
				<path style="fill:url(#SVGID_00000171698653885735621070000013789661041588507564_);" d="M2380.527,1586.13
					c0,0-20.879,102.015-4.376,135.88c16.502,33.864,73.827,14.199,116.019-29.68l7.383-105.689L2380.527,1586.13z"/>
				
					<linearGradient id="SVGID_00000121255496522447995370000014077376606019685791_" gradientUnits="userSpaceOnUse" x1="-8060.9639" y1="-3155.0549" x2="-8018.6689" y2="-2913.8191" gradientTransform="matrix(-0.9037 -0.428 -0.428 0.9037 -6083.8638 853.2395)">
					<stop  offset="0" style="stop-color:#09005D"/>
					<stop  offset="1" style="stop-color:#1A0F91"/>
				</linearGradient>
				<path style="fill:url(#SVGID_00000121255496522447995370000014077376606019685791_);" d="M2476.149,1646.213
					c-2.33-0.305-3.834-2.603-3.154-4.853c2.065-6.841,5.656-20.616,4.884-31.522c0,0,6.836-7.876-25.136-6.228
					c-31.972,1.647-79.778,3.671-96.627-18.994c-16.428-22.097-10.805-91.491,42.083-53.096c2.012,1.461,4.876,0.662,5.773-1.657
					c3.868-10.01,15.367-31.812,41.286-28.282c24.255,3.302,31.292,18.29,33.329,26.29c0.599,2.354,3.213,3.549,5.373,2.44
					c10.223-5.256,35.693-14.686,55.679,8.405c16.462,19.02,13.629,33.366,9.505,41.189c-1.337,2.535,0.459,5.531,3.324,5.562
					c7.76,0.082,18.73,3.411,22.723,20.36c5.52,23.432-20.858,28.993-28.508,30.104c-1.253,0.183-2.342,0.952-2.892,2.092
					c-4.242,8.819-23.886,46.742-53.525,59.345c-2.566,1.092-5.398-0.926-5.274-3.711l1.91-42.518
					c0.088-1.975-1.349-3.688-3.308-3.947L2476.149,1646.213z"/>
				
					<linearGradient id="SVGID_00000037688724942300141050000014713283748032905660_" gradientUnits="userSpaceOnUse" x1="-8067.0352" y1="-2865.2668" x2="-8112.5273" y2="-3015.3101" gradientTransform="matrix(-0.9037 -0.428 -0.428 0.9037 -6083.8638 853.2395)">
					<stop  offset="0" style="stop-color:#FEBBBA"/>
					<stop  offset="1" style="stop-color:#FF928E"/>
				</linearGradient>
				<path style="fill:url(#SVGID_00000037688724942300141050000014713283748032905660_);" d="M2472.424,1653.267
					c0,0,26.623-32.721,34.739-14.161c8.116,18.561-21.821,36.775-40.028,34.326L2472.424,1653.267z"/>
			</g>
			
				<linearGradient id="SVGID_00000045616960699952864560000012092471796312794533_" gradientUnits="userSpaceOnUse" x1="2609.6775" y1="2338.489" x2="2617.0959" y2="2029.8737">
				<stop  offset="0" style="stop-color:#FEBBBA"/>
				<stop  offset="1" style="stop-color:#FF928E"/>
			</linearGradient>
			<path style="fill:url(#SVGID_00000045616960699952864560000012092471796312794533_);" d="M2675.138,2107.847
				c0,0-14.615,186.821-137.601,194.878c0,0-52.713-4.833-75.594,13.137c-22.881,17.97-11.793,45.653-11.793,45.653l99.224-12.097
				c0,0,141.907,23.628,227.232-213.898L2675.138,2107.847z"/>
			
				<linearGradient id="SVGID_00000121986189769174416910000007333658873845399437_" gradientUnits="userSpaceOnUse" x1="2502.8972" y1="1600.4702" x2="2908.8884" y2="2586.9294">
				<stop  offset="0" style="stop-color:#4042E2"/>
				<stop  offset="1" style="stop-color:#4F52FF"/>
			</linearGradient>
			<path style="fill:url(#SVGID_00000121986189769174416910000007333658873845399437_);" d="M2635.935,1834.752
				c0,0,168.344,100.139,140.671,300.769c0,0-60.138,26.064-103.864-8.875c0,0-34.073-130.349-108.082-136.838L2635.935,1834.752z"
				/>
			
				<linearGradient id="SVGID_00000131344565880900088830000005146229586884238514_" gradientUnits="userSpaceOnUse" x1="2011.7487" y1="1991.3456" x2="2017.5792" y2="1748.7872">
				<stop  offset="0" style="stop-color:#FEBBBA"/>
				<stop  offset="1" style="stop-color:#FF928E"/>
			</linearGradient>
			<path style="fill:url(#SVGID_00000131344565880900088830000005146229586884238514_);" d="M2159.86,1906.54
				c0,0-80.843,37.576-175.392-62.739c-64.618-68.558-104.152-26.522-116.646,1.152c-12.495,27.675,17.393,25.368,27.816,25.368
				c10.423,0,11.717-30.107,30.096-26.007c18.378,4.1,12.971-1.389,14.124,17.06s99.956,226.781,222.178,125.314L2159.86,1906.54z"
				/>
			<g>
				<path style="fill:#91B3FA;" d="M1790.376,1920.078l213.647-13.464c19.479-1.228,36.568,12.874,39.061,32.232l47.843,371.557
					c2.852,22.149-14.401,41.765-36.732,41.765h-278.773c-21.155,0-38.012-17.69-36.992-38.821l17.284-358.093
					C1756.623,1936.413,1771.549,1921.265,1790.376,1920.078z"/>
				
					<linearGradient id="SVGID_00000119100471069916977570000006749342639180615096_" gradientUnits="userSpaceOnUse" x1="1869.1389" y1="1722.7469" x2="1915.2603" y2="2114.7803">
					<stop  offset="0" style="stop-color:#4042E2"/>
					<stop  offset="1" style="stop-color:#4F52FF"/>
				</linearGradient>
				<path style="fill:url(#SVGID_00000119100471069916977570000006749342639180615096_);" d="M1821.876,1957.829
					c-3.688,0-6.754-2.909-6.907-6.63c-0.201-4.77-3.962-117.002,75.026-129.347c16.899-2.626,31.891,1.333,44.566,11.805
					c38.453,31.781,41.703,113.552,41.822,117.016c0.133,3.82-2.856,7.017-6.673,7.152c-3.792,0.059-7.022-2.856-7.154-6.675
					c-0.027-0.784-3.158-79.033-36.823-106.837c-9.614-7.945-20.613-10.805-33.603-8.788
					c-66.919,10.454-63.381,114.052-63.339,115.097c0.16,3.819-2.806,7.04-6.623,7.202
					C1822.07,1957.829,1821.973,1957.829,1821.876,1957.829z"/>
			</g>
			
				<linearGradient id="SVGID_00000067221367333419742230000010154868284680817302_" gradientUnits="userSpaceOnUse" x1="2146.25" y1="1747.2537" x2="2552.2407" y2="2733.7124">
				<stop  offset="0" style="stop-color:#4042E2"/>
				<stop  offset="1" style="stop-color:#4F52FF"/>
			</linearGradient>
			<path style="fill:url(#SVGID_00000067221367333419742230000010154868284680817302_);" d="M2271.706,1808.782l-130.425,97.758
				c0,0-2.306,73.239,14.99,107.87l145.283-35.704L2271.706,1808.782z"/>
		</g>
		<g>
			
				<linearGradient id="SVGID_00000176723231803550029220000012707084099792530344_" gradientUnits="userSpaceOnUse" x1="1122.4037" y1="1451.6246" x2="1229.84" y2="1721.1262" gradientTransform="matrix(1 0 0 1 1621.2841 0)">
				<stop  offset="0" style="stop-color:#09005D"/>
				<stop  offset="1" style="stop-color:#1A0F91"/>
			</linearGradient>
			<path style="fill:url(#SVGID_00000176723231803550029220000012707084099792530344_);" d="M2807.392,1596.594
				c0,0,36.22,17.618,42.879,37.856c5.344,16.238,45.392,18.332,49.349,50.268c2.042,16.489,14.244,29.694,30.667,32.212
				c40.903,6.269,103.939,27.51,114.026,98.527c7.698,54.206-19.936,74.76-48.936,81.875c-21.301,5.225-35.456,25.943-31.148,47.448
				c4.133,20.627-2.03,44.471-37.763,63.327c-80.076,42.253-160.044-100.102-160.044-100.102l-16.389-248.561L2807.392,1596.594z"/>
			
				<linearGradient id="SVGID_00000054970013548105857130000005233033195954645889_" gradientUnits="userSpaceOnUse" x1="1515.1443" y1="3177.0005" x2="1606.2461" y2="3177.0005" gradientTransform="matrix(1 0 0 1 1621.2841 0)">
				<stop  offset="0" style="stop-color:#4042E2"/>
				<stop  offset="1" style="stop-color:#4F52FF"/>
			</linearGradient>
			<path style="fill:url(#SVGID_00000054970013548105857130000005233033195954645889_);" d="M3136.537,3155.152l5.182,42.598
				c0.983,8.082,7.345,14.471,15.433,15.395c13.657,1.559,35.571,3.159,57.012,0.893c9.412-0.995,15.521-10.525,12.654-19.544
				c-5.227-16.445-14.788-41.13-28.575-55.657h-47.255C3142.25,3138.836,3135.482,3146.479,3136.537,3155.152z"/>
			
				<linearGradient id="SVGID_00000168118014214851613540000005769726378516226443_" gradientUnits="userSpaceOnUse" x1="1130.1929" y1="3536.2549" x2="1261.2948" y2="2004.0011" gradientTransform="matrix(1 0 0 1 1621.2841 0)">
				<stop  offset="0" style="stop-color:#C4421B"/>
				<stop  offset="1" style="stop-color:#5C0E16"/>
			</linearGradient>
			<path style="fill:url(#SVGID_00000168118014214851613540000005769726378516226443_);" d="M2766.42,2656.138l-7.976,46.918
				c0,0,26.71,270.547,31.461,378.766c0.745,16.967-3.644,33.734-12.549,48.194l-46.444,75.42l118.036-69.652l2.35-14.404
				l-19.323-26.567l25.309-303.08c1.487-17.804-2.187-35.66-10.582-51.432l-24.415-45.866L2766.42,2656.138z"/>
			
				<linearGradient id="SVGID_00000035517066988581055250000006202245894317000096_" gradientUnits="userSpaceOnUse" x1="1091.8937" y1="3160.3672" x2="1239.3035" y2="3160.3672" gradientTransform="matrix(1 0 0 1 1621.2841 0)">
				<stop  offset="0" style="stop-color:#4042E2"/>
				<stop  offset="1" style="stop-color:#4F52FF"/>
			</linearGradient>
			<path style="fill:url(#SVGID_00000035517066988581055250000006202245894317000096_);" d="M2723.138,3216.361h37.668
				c7.05,0,13.7-3.236,18-8.824c11.743-15.258,36.073-45.027,47.706-45.804c15.661-1.046,13.657,54.628,13.657,54.628h8.779
				l11.119-69.182c2.798-17.406-5.859-34.65-21.49-42.806l0,0c0,0-3.581,26.475-22.992,38.185
				c-19.411,11.711-78.991,53.648-78.991,53.648s-7.297-1.04-15.309,0.408C2709.4,3198.762,2711.061,3216.361,2723.138,3216.361z"/>
			
				<linearGradient id="SVGID_00000149345094489519529720000011615510835735786672_" gradientUnits="userSpaceOnUse" x1="1393.9122" y1="3559.0542" x2="1525.0487" y2="2026.3967" gradientTransform="matrix(1 0 0 1 1621.2841 0)">
				<stop  offset="0" style="stop-color:#C4421B"/>
				<stop  offset="1" style="stop-color:#5C0E16"/>
			</linearGradient>
			<path style="fill:url(#SVGID_00000149345094489519529720000011615510835735786672_);" d="M2928.09,2678.421
				c0,0,156.474,296.815,181.348,364.583c24.873,67.767,33.586,124.301,33.92,129.655c0.521,8.366,10.925,16.388,39.605,16.388
				c14.802,0,22.051-5.933,25.599-11.676c3.029-4.899,3.185-11.03,0.634-16.194c-9.052-18.318-37.776-76.857-48.414-103.407
				c-12.701-31.701-40.022-175.361-55.006-225.31c-14.984-49.949-31.921-104.131-97.172-154.039
				C3008.605,2678.421,2963.813,2634.55,2928.09,2678.421z"/>
			<path style="fill:#BDD0FB;" d="M2829.243,2192.074c-40.363-171.035,61.888-267.77,61.888-267.77
				c-64.519-61.931-182.072-90.112-182.072-90.112s-112.171,82.007-98.864,146.196c7.8,37.621,78.846,225.343,78.846,225.343
				S2754.737,2236.823,2829.243,2192.074z"/>
			<path style="fill:#7D97F4;" d="M2918.734,2276.749c-16.427-49.486-89.491-84.675-89.491-84.675
				c-74.506,44.749-140.202,13.657-140.202,13.657s-14.733,56.314-4.564,108.649c10.169,52.335,73.967,388.675,73.967,388.675
				c100.525,20.368,255.13-20.493,255.13-20.493C2949.543,2568.881,2935.16,2326.235,2918.734,2276.749z"/>
			
				<linearGradient id="SVGID_00000170958530314404696960000007009941582136018082_" gradientUnits="userSpaceOnUse" x1="1115.8151" y1="2025.9105" x2="1140.4423" y2="1845.7449" gradientTransform="matrix(1 0 0 1 1621.2841 0)">
				<stop  offset="0" style="stop-color:#C4421B"/>
				<stop  offset="1" style="stop-color:#5C0E16"/>
			</linearGradient>
			<path style="fill:url(#SVGID_00000170958530314404696960000007009941582136018082_);" d="M2782.391,1721.167l32.816,147.402
				c3.142,12.984-8.695,10.859-21.821,8.384c-21.497-4.053-49.203-12.399-58.466-29.127c-0.943-1.702-1.414-3.627-1.679-5.554
				l-14.098-102.213c-1.119-8.109,3.265-15.979,10.749-19.298l27.206-12.064C2767.573,1704.053,2779.696,1710.03,2782.391,1721.167z
				"/>
			
				<linearGradient id="SVGID_00000061437133249385211390000006639953275554605452_" gradientUnits="userSpaceOnUse" x1="1217.3152" y1="2113.7068" x2="1380.911" y2="2113.7068" gradientTransform="matrix(1 0 0 1 1621.2841 0)">
				<stop  offset="0" style="stop-color:#C4421B"/>
				<stop  offset="1" style="stop-color:#5C0E16"/>
			</linearGradient>
			<path style="fill:url(#SVGID_00000061437133249385211390000006639953275554605452_);" d="M2891.131,1924.304
				c0,0,229.041,163.866,29.293,336.056c0,0-7.617,8.617-22.6,13.096c-7.564,2.26-29.942,19.191-41.286,28.018
				c-3.647,2.838-8.917,1.872-11.369-2.045l0,0c-1.922-3.07-2.147-6.906-0.599-10.179l28.355-59.959
				c7.874-7.349,19.926-7.871,28.406-1.23l0,0c5.41,4.236,13.334,2.462,16.361-3.706c15.441-31.449,44.599-123.944-74.739-228.459
				c-4.487-3.929-5.622-10.427-2.868-15.716C2848.471,1964.072,2867.646,1932.086,2891.131,1924.304z"/>
			<g>
				
					<linearGradient id="SVGID_00000147900659487743500380000016734241176237329837_" gradientUnits="userSpaceOnUse" x1="905.5197" y1="2124.7036" x2="1120.401" y2="1742.2871" gradientTransform="matrix(0.9809 -0.1943 0.1943 0.9809 1392.194 -99.2406)">
					<stop  offset="0" style="stop-color:#C4421B"/>
					<stop  offset="1" style="stop-color:#5C0E16"/>
				</linearGradient>
				<path style="fill:url(#SVGID_00000147900659487743500380000016734241176237329837_);" d="M2719.536,1586.794
					c0,0-34.937,23.649-49.949,83.874c-15.012,60.225,9.384,81.829,34.392,80.505c25.007-1.324,61.267-9.057,92.683-52.263
					C2828.078,1655.704,2765.317,1557.896,2719.536,1586.794z"/>
				
					<linearGradient id="SVGID_00000174602622470839790300000000592793862481075866_" gradientUnits="userSpaceOnUse" x1="951.7319" y1="1791.679" x2="1059.1727" y2="2061.1919" gradientTransform="matrix(0.9809 -0.1943 0.1943 0.9809 1392.194 -99.2406)">
					<stop  offset="0" style="stop-color:#09005D"/>
					<stop  offset="1" style="stop-color:#1A0F91"/>
				</linearGradient>
				<path style="fill:url(#SVGID_00000174602622470839790300000000592793862481075866_);" d="M2764.981,1674.618
					c0,0,12.801-86.297-58.849-73.098l-14.487,15.082c0,0-35.071-39.495,3.74-69.35c38.81-29.854,92.667-22.209,122.463,32.143
					c29.796,54.352,40.61,92.544,15.635,126.317s-43.76,4.807-43.76,4.807s11.454-29.231,1.95-41.774s-21.765,7.294-21.765,7.294
					L2764.981,1674.618z"/>
				
					<linearGradient id="SVGID_00000054233092540770844680000014482287509973622953_" gradientUnits="userSpaceOnUse" x1="951.2585" y1="2150.4087" x2="1166.1406" y2="1767.9906" gradientTransform="matrix(0.9809 -0.1943 0.1943 0.9809 1392.194 -99.2406)">
					<stop  offset="0" style="stop-color:#C4421B"/>
					<stop  offset="1" style="stop-color:#5C0E16"/>
				</linearGradient>
				<path style="fill:url(#SVGID_00000054233092540770844680000014482287509973622953_);" d="M2774.773,1682.008
					c0,0,6.32-44.399,28.995-31.707c22.676,12.693-8.173,41.476-20.541,51.269L2774.773,1682.008z"/>
			</g>
		</g>
		<g>
			<path style="fill:#91B3FA;" d="M1296.757,1183.325c33.987-66.021,97.205-112.566,170.633-120.88l5.023-317.891
				c0.043-2.715-2.162-4.952-4.877-4.922c-207.106,2.243-389.853,131.144-475.141,322.072c-1.241,2.777,0.131,6.035,2.975,7.116
				L1296.757,1183.325z"/>
			
				<linearGradient id="SVGID_00000036237020466888966620000011048681197002664588_" gradientUnits="userSpaceOnUse" x1="1528.2352" y1="1416.0641" x2="1895.0818" y2="2033.4402">
				<stop  offset="0" style="stop-color:#FE7062"/>
				<stop  offset="1" style="stop-color:#FF928E"/>
			</linearGradient>
			<path style="fill:url(#SVGID_00000036237020466888966620000011048681197002664588_);" d="M1705.999,1335.626
				c-4.251-0.115-8.056,2.593-9.326,6.651c-3.556,11.366-10.056,33.173-11.121,35.931c-5.178,13.415-11.242,26.5-18.346,39.007
				c-13.174,23.194-30.021,44.452-50.807,61.283c-52.681,42.66-128.411,50.586-191.578,29.472c-1.801-0.602-3.585-1.249-5.363-1.914
				c-3.291-1.231-6.984,0.135-8.673,3.216l-159.275,290.466c77.342,38.784,150.124,48.926,241.436,43.074
				c265.298-17.002,473.621-232.412,496.743-499.539L1705.999,1335.626z"/>
			<path style="fill:#91B3FA;" d="M1705.999,1335.626c-17.268,106-95.606,188.825-202.057,192.439
				c-29.948,1.017-65.679-5.94-91.948-16.58c-2.739-1.11-5.878,0.011-7.364,2.566l-163.715,281.636
				c77.342,38.784,164.678,57.768,255.99,51.916c265.298-17.002,473.621-238.951,496.743-506.079L1705.999,1335.626z"/>
			
				<linearGradient id="SVGID_00000007417098110627819990000004660511428520834722_" gradientUnits="userSpaceOnUse" x1="1309.0696" y1="1591.5339" x2="901.9598" y2="1139.6862">
				<stop  offset="0" style="stop-color:#FE7062"/>
				<stop  offset="1" style="stop-color:#FF928E"/>
			</linearGradient>
			<path style="fill:url(#SVGID_00000007417098110627819990000004660511428520834722_);" d="M1206.792,1751.22l158.516-284.316
				c1.123-2.013,0.646-4.526-1.117-6.011c-48.801-41.097-87.816-96.199-87.816-167.653c0-17.623-7.814-43.274-4.234-59.809
				l-298.107-106.597c-16.548,53.828-25.482,111.119-25.482,170.481c0,191.901,101.965,360.679,241.968,457.697
				C1195.991,1758.805,1203.549,1757.036,1206.792,1751.22z"/>
			<path style="fill:#BDD0FB;" d="M1190.941,1743.141l164.271-280.798c2.087-3.567,1.369-8.116-1.735-10.845
				c-47.122-41.445-77.103-103.746-77.103-174.037c0-17.623,1.903-34.804,5.483-51.339l-303.36-113.398
				c-2.416-0.903-5.109,0.419-5.846,2.891c-15.663,52.5-24.101,108.232-24.101,165.921
				C948.551,1478.104,1045.676,1647.368,1190.941,1743.141z"/>
			<g>
				
					<linearGradient id="SVGID_00000137831810176192323280000018058369893872169876_" gradientUnits="userSpaceOnUse" x1="1525.5048" y1="906.0552" x2="2173.5117" y2="906.0552">
					<stop  offset="0" style="stop-color:#4042E2"/>
					<stop  offset="1" style="stop-color:#4F52FF"/>
				</linearGradient>
				<path style="fill:url(#SVGID_00000137831810176192323280000018058369893872169876_);" d="M1525.505,1063.955
					c94.028,15.727,166.944,94.902,179.296,193.842c0.661,5.292,5.03,9.337,10.359,9.515l454.779,15.241
					c1.414-1.37,2.159-2.092,3.572-3.463c-1.391-380.448-274.192-706.391-639.609-749.533L1525.505,1063.955z"/>
			</g>
		</g>
		<g>
			
				<linearGradient id="SVGID_00000168804668344687641030000004769116577938609072_" gradientUnits="userSpaceOnUse" x1="3040.6528" y1="1349.2849" x2="3217.1809" y2="1144.3865" gradientTransform="matrix(0.9994 -0.0332 0.0332 0.9994 -1063.2769 -155.2457)">
				<stop  offset="0" style="stop-color:#FE7062"/>
				<stop  offset="1" style="stop-color:#FF928E"/>
			</linearGradient>
			
				<circle style="fill:url(#SVGID_00000168804668344687641030000004769116577938609072_);" cx="2193.394" cy="877.389" r="131.602"/>
			
				<linearGradient id="SVGID_00000085253139946032683620000002603830257089649339_" gradientUnits="userSpaceOnUse" x1="3316.9307" y1="994.9411" x2="2794.9329" y2="1783.5313" gradientTransform="matrix(0.9994 -0.0332 0.0332 0.9994 -1063.2769 -155.2457)">
				<stop  offset="0" style="stop-color:#FE7062"/>
				<stop  offset="1" style="stop-color:#FF928E"/>
			</linearGradient>
			
				<circle style="fill:url(#SVGID_00000085253139946032683620000002603830257089649339_);" cx="2193.394" cy="877.389" r="127.226"/>
			<path style="opacity:0.78;fill:#FFFFFF;" d="M2086.922,832.311c-0.644,0.022-1.303-0.102-1.927-0.393
				c-2.133-0.989-3.058-3.519-2.069-5.648c19.455-41.958,60.232-68.973,106.42-70.51c7.371-0.245,14.774,0.173,22.004,1.242
				c2.323,0.343,3.929,2.505,3.586,4.828c-0.343,2.327-2.494,3.949-4.832,3.586c-6.724-0.99-13.614-1.38-20.475-1.152
				c-42.959,1.43-80.887,26.558-98.985,65.582C2089.946,831.354,2088.477,832.259,2086.922,832.311z"/>
			
				<ellipse transform="matrix(0.7071 -0.7071 0.7071 0.7071 20.9668 1810.7534)" style="opacity:0.78;fill:#FFFFFF;" cx="2196.256" cy="880.068" rx="107.681" ry="107.681"/>
			<g>
				
					<linearGradient id="SVGID_00000116934219359945968130000009596904186598279610_" gradientUnits="userSpaceOnUse" x1="3301.3574" y1="1017.5402" x2="3023.4121" y2="1484.1641" gradientTransform="matrix(0.9994 -0.0332 0.0332 0.9994 -1063.2769 -155.2457)">
					<stop  offset="0" style="stop-color:#FE7062"/>
					<stop  offset="1" style="stop-color:#FF928E"/>
				</linearGradient>
				<path style="fill:url(#SVGID_00000116934219359945968130000009596904186598279610_);" d="M2188.357,960.426l-0.39-11.708
					c-12.222-0.082-24.391-2.562-33.091-6.03c-3.106-1.238-4.781-4.623-4.009-7.876l2.612-11.006
					c0.958-4.037,5.24-6.251,9.118-4.776c8.625,3.283,19.221,5.754,30.546,5.377c11.757-0.391,20.392-4.668,20.12-12.839
					c-0.245-7.372-7.166-11.53-23.651-15.37c-23.526-5.6-40.602-15.206-41.285-35.731c-0.617-18.532,12.463-33.13,35.85-37.698
					l-0.39-11.71c-0.125-3.768,2.827-6.924,6.595-7.05l6.88-0.229c3.767-0.125,6.924,2.828,7.049,6.595l0.35,10.513
					c11.309,0.076,19.595,1.734,26.196,3.81c3.382,1.063,5.328,4.604,4.515,8.054l-2.399,10.177
					c-0.926,3.925-5.011,6.193-8.828,4.893c-6.083-2.072-14.655-4.154-25.694-3.787c-13.949,0.464-17.741,6.375-17.569,11.556
					c0.212,6.376,8.727,10.481,27.046,15.458c26.163,6.909,37.281,17.311,37.924,36.64c0.59,17.734-12.031,34.113-37.404,38.947
					l0.436,13.104c0.125,3.768-2.827,6.924-6.595,7.049l-6.88,0.229C2191.639,967.146,2188.483,964.194,2188.357,960.426z"/>
			</g>
		</g>
		<g>
			
				<linearGradient id="SVGID_00000147939132982603898950000001040927585428224701_" gradientUnits="userSpaceOnUse" x1="2870.0229" y1="1530.9126" x2="3015.0972" y2="1362.5229" gradientTransform="matrix(0.9994 -0.0332 0.0332 0.9994 -1063.2769 -155.2457)">
				<stop  offset="0" style="stop-color:#FE7062"/>
				<stop  offset="1" style="stop-color:#FF928E"/>
			</linearGradient>
			
				<circle style="fill:url(#SVGID_00000147939132982603898950000001040927585428224701_);" cx="1998.063" cy="1102.862" r="108.153"/>
			
				<linearGradient id="SVGID_00000088830561943012637160000004951983752386942384_" gradientUnits="userSpaceOnUse" x1="3097.0735" y1="1239.7058" x2="2668.0854" y2="1887.7847" gradientTransform="matrix(0.9994 -0.0332 0.0332 0.9994 -1063.2769 -155.2457)">
				<stop  offset="0" style="stop-color:#FE7062"/>
				<stop  offset="1" style="stop-color:#FF928E"/>
			</linearGradient>
			
				<circle style="fill:url(#SVGID_00000088830561943012637160000004951983752386942384_);" cx="1998.063" cy="1102.862" r="104.557"/>
			<path style="opacity:0.78;fill:#FFFFFF;" d="M1910.562,1065.816c-0.529,0.018-1.071-0.084-1.584-0.323
				c-1.752-0.813-2.513-2.892-1.7-4.641c15.988-34.482,49.5-56.684,87.458-57.947c6.058-0.201,12.142,0.142,18.083,1.021
				c1.909,0.282,3.229,2.059,2.947,3.968c-0.281,1.912-2.05,3.245-3.971,2.947c-5.526-0.814-11.188-1.134-16.827-0.947
				c-35.305,1.175-66.475,21.826-81.347,53.897C1913.047,1065.029,1911.84,1065.773,1910.562,1065.816z"/>
			
				<ellipse transform="matrix(0.7071 -0.7071 0.7071 0.7071 -195.4897 1738.1727)" style="opacity:0.78;fill:#FFFFFF;" cx="2000.415" cy="1105.063" rx="88.495" ry="88.494"/>
			<g>
				
					<linearGradient id="SVGID_00000022552974988840384500000000480781477297774782_" gradientUnits="userSpaceOnUse" x1="3084.2749" y1="1258.2782" x2="2855.854" y2="1641.759" gradientTransform="matrix(0.9994 -0.0332 0.0332 0.9994 -1063.2769 -155.2457)">
					<stop  offset="0" style="stop-color:#FE7062"/>
					<stop  offset="1" style="stop-color:#FF928E"/>
				</linearGradient>
				<path style="fill:url(#SVGID_00000022552974988840384500000000480781477297774782_);" d="M1993.924,1171.103l-0.32-9.622
					c-10.044-0.068-20.045-2.105-27.195-4.956c-2.553-1.017-3.929-3.799-3.295-6.473l2.146-9.045
					c0.787-3.318,4.307-5.138,7.494-3.925c7.088,2.698,15.796,4.729,25.103,4.419c9.662-0.322,16.758-3.836,16.535-10.551
					c-0.201-6.058-5.889-9.475-19.437-12.631c-19.334-4.603-33.368-12.497-33.929-29.364c-0.507-15.23,10.242-27.227,29.462-30.981
					l-0.32-9.623c-0.103-3.096,2.323-5.69,5.42-5.794l5.654-0.188c3.096-0.103,5.69,2.324,5.793,5.42l0.288,8.64
					c9.294,0.063,16.104,1.425,21.529,3.131c2.78,0.874,4.379,3.783,3.71,6.619l-1.972,8.364c-0.761,3.225-4.119,5.09-7.255,4.022
					c-4.999-1.703-12.044-3.414-21.116-3.112c-11.464,0.381-14.58,5.239-14.438,9.497c0.174,5.24,7.172,8.614,22.227,12.703
					c21.501,5.678,30.638,14.226,31.167,30.111c0.485,14.575-9.887,28.035-30.739,32.008l0.359,10.769
					c0.103,3.097-2.324,5.69-5.42,5.793l-5.654,0.188C1996.621,1176.626,1994.027,1174.2,1993.924,1171.103z"/>
			</g>
		</g>
		<g>
			
				<linearGradient id="SVGID_00000074406241700519252050000013220460832577742215_" gradientUnits="userSpaceOnUse" x1="3309.1814" y1="1240.2821" x2="3539.2927" y2="973.189" gradientTransform="matrix(0.9994 -0.0332 0.0332 0.9994 -1063.2769 -155.2457)">
				<stop  offset="0" style="stop-color:#FE7062"/>
				<stop  offset="1" style="stop-color:#FF928E"/>
			</linearGradient>
			
				<circle style="fill:url(#SVGID_00000074406241700519252050000013220460832577742215_);" cx="2510.668" cy="694.309" r="171.548"/>
			
				<linearGradient id="SVGID_00000072239748919992125610000013508970490047939985_" gradientUnits="userSpaceOnUse" x1="3669.3206" y1="778.3807" x2="2988.8752" y2="1806.3395" gradientTransform="matrix(0.9994 -0.0332 0.0332 0.9994 -1063.2769 -155.2457)">
				<stop  offset="0" style="stop-color:#FE7062"/>
				<stop  offset="1" style="stop-color:#FF928E"/>
			</linearGradient>
			
				<circle style="fill:url(#SVGID_00000072239748919992125610000013508970490047939985_);" cx="2510.668" cy="694.309" r="165.844"/>
			<path style="opacity:0.78;fill:#FFFFFF;" d="M2371.8,633.099c-0.469,0.016-0.948-0.074-1.403-0.286
				c-1.552-0.72-2.226-2.561-1.506-4.11c24.968-53.849,77.303-88.523,136.582-90.496c9.459-0.315,18.961,0.222,28.243,1.599
				c1.692,0.249,2.861,1.823,2.61,3.516c-0.251,1.69-1.812,2.868-3.517,2.607c-8.915-1.319-18.043-1.835-27.13-1.533
				c-56.93,1.894-107.191,35.196-131.172,86.91C2374,632.403,2372.931,633.061,2371.8,633.099z"/>
			
				<ellipse transform="matrix(0.2575 -0.9663 0.9663 0.2575 1192.6565 2947.7173)" style="opacity:0.78;fill:#FFFFFF;" cx="2514.4" cy="697.8" rx="140.366" ry="140.367"/>
			<g>
				
					<linearGradient id="SVGID_00000076597430520875004360000002529757166263448237_" gradientUnits="userSpaceOnUse" x1="3649.0198" y1="807.8393" x2="3286.7063" y2="1416.1038" gradientTransform="matrix(0.9994 -0.0332 0.0332 0.9994 -1063.2769 -155.2457)">
					<stop  offset="0" style="stop-color:#FE7062"/>
					<stop  offset="1" style="stop-color:#FF928E"/>
				</linearGradient>
				<path style="fill:url(#SVGID_00000076597430520875004360000002529757166263448237_);" d="M2504.104,802.551l-0.508-15.263
					c-15.932-0.108-31.795-3.339-43.135-7.86c-4.05-1.614-6.233-6.026-5.227-10.268l3.404-14.346
					c1.249-5.263,6.831-8.149,11.886-6.225c11.243,4.279,25.056,7.501,39.818,7.01c15.325-0.51,26.581-6.086,26.227-16.736
					c-0.32-9.61-9.341-15.03-30.83-20.035c-30.667-7.301-52.927-19.822-53.817-46.576c-0.804-24.157,16.246-43.187,46.731-49.141
					l-0.508-15.264c-0.163-4.912,3.686-9.025,8.597-9.189l8.967-0.299c4.912-0.163,9.025,3.685,9.189,8.597l0.456,13.705
					c14.743,0.099,25.543,2.26,34.148,4.966c4.409,1.386,6.946,6.001,5.885,10.499l-3.128,13.267
					c-1.206,5.116-6.533,8.073-11.508,6.379c-7.929-2.701-19.103-5.416-33.493-4.937c-18.183,0.605-23.126,8.31-22.901,15.064
					c0.277,8.312,11.376,13.663,35.254,20.15c34.104,9.006,48.597,22.565,49.435,47.761c0.769,23.117-15.681,44.467-48.756,50.77
					l0.568,17.081c0.164,4.912-3.686,9.026-8.597,9.189l-8.969,0.298C2508.381,811.312,2504.267,807.462,2504.104,802.551z"/>
			</g>
		</g>
		<g>
			<g>
				
					<linearGradient id="SVGID_00000138574261977067013890000017481551569502157696_" gradientUnits="userSpaceOnUse" x1="-2141.0327" y1="1437.3564" x2="-2033.5702" y2="1706.924" gradientTransform="matrix(-1 0 0 1 -1165.4333 0)">
					<stop  offset="0" style="stop-color:#09005D"/>
					<stop  offset="1" style="stop-color:#1A0F91"/>
				</linearGradient>
				<path style="fill:url(#SVGID_00000138574261977067013890000017481551569502157696_);" d="M911.88,1582.362
					c0,0-36.228,17.622-42.889,37.865c-5.345,16.242-45.404,18.336-49.361,50.28c-2.043,16.493-14.248,29.701-30.675,32.219
					c-40.913,6.271-103.965,27.516-114.053,98.551c-7.7,54.22,19.94,74.779,48.948,81.896c21.306,5.227,35.464,25.95,31.155,47.46
					c-4.133,20.631,2.031,44.482,37.773,63.342c80.096,42.264,160.084-100.126,160.084-100.126l16.393-248.622L911.88,1582.362z"/>
				
					<linearGradient id="SVGID_00000155129039739214734550000014896526148689043846_" gradientUnits="userSpaceOnUse" x1="-2465.0349" y1="1265.5338" x2="-2266.5071" y2="1717.2294" gradientTransform="matrix(-0.9776 -0.2106 -0.2106 0.9776 -915.0133 -113.5247)">
					<stop  offset="0" style="stop-color:#FEBBBA"/>
					<stop  offset="1" style="stop-color:#FF928E"/>
				</linearGradient>
				<path style="fill:url(#SVGID_00000155129039739214734550000014896526148689043846_);" d="M1347.704,1523.421
					c0,0-159.922,252.952-350.088,301.81c0,0,37.054,105.538,65.655,117.617c0,0,233.958-195.211,294.081-383.483L1347.704,1523.421
					z"/>
				
					<linearGradient id="SVGID_00000103978832431936496390000013417785290973760414_" gradientUnits="userSpaceOnUse" x1="-1730.7577" y1="3371.6555" x2="-1616.6775" y2="2522.7671" gradientTransform="matrix(-1 0 0 1 -1165.4333 0)">
					<stop  offset="0" style="stop-color:#4042E2"/>
					<stop  offset="1" style="stop-color:#4F52FF"/>
				</linearGradient>
				<path style="fill:url(#SVGID_00000103978832431936496390000013417785290973760414_);" d="M582.654,3141.301l-5.183,42.609
					c-0.983,8.083-7.347,14.475-15.438,15.399c-13.659,1.56-35.579,3.16-57.025,0.893c-9.414-0.995-15.525-10.527-12.657-19.549
					c5.228-16.448,14.793-41.14,28.583-55.671H568.2C576.939,3124.982,583.709,3132.626,582.654,3141.301z"/>
				
					<linearGradient id="SVGID_00000064324653652495307380000002166057294580099257_" gradientUnits="userSpaceOnUse" x1="-2133.2419" y1="3522.4983" x2="-2002.1079" y2="1989.8674" gradientTransform="matrix(-1 0 0 1 -1165.4333 0)">
					<stop  offset="0" style="stop-color:#FEBBBA"/>
					<stop  offset="1" style="stop-color:#FF928E"/>
				</linearGradient>
				<path style="fill:url(#SVGID_00000064324653652495307380000002166057294580099257_);" d="M952.862,2642.164l7.978,46.93
					c0,0-26.716,270.614-31.468,378.859c-0.745,16.971,3.645,33.742,12.553,48.206l46.455,75.439l-118.065-69.669l-2.35-14.408
					l19.327-26.574l-25.316-303.154c-1.487-17.809,2.188-35.669,10.585-51.445l24.421-45.878L952.862,2642.164z"/>
				
					<linearGradient id="SVGID_00000132084999865024811770000008831875473638708665_" gradientUnits="userSpaceOnUse" x1="-2119.1719" y1="3319.4575" x2="-2005.0912" y2="2470.5659" gradientTransform="matrix(-1 0 0 1 -1165.4333 0)">
					<stop  offset="0" style="stop-color:#4042E2"/>
					<stop  offset="1" style="stop-color:#4F52FF"/>
				</linearGradient>
				<path style="fill:url(#SVGID_00000132084999865024811770000008831875473638708665_);" d="M996.154,3202.526h-37.677
					c-7.052,0-13.703-3.238-18.004-8.827c-11.746-15.262-36.081-45.038-47.717-45.815c-15.664-1.046-13.66,54.642-13.66,54.642
					h-8.781l-11.122-69.199c-2.798-17.411,5.86-34.659,21.495-42.817c0,0,3.581,26.481,22.997,38.195
					c19.416,11.713,79.01,53.661,79.01,53.661s7.299-1.041,15.313,0.407C1009.895,3184.922,1008.235,3202.526,996.154,3202.526z"/>
				
					<linearGradient id="SVGID_00000087397143059374861670000006014775442281875332_" gradientUnits="userSpaceOnUse" x1="-1869.4576" y1="3545.3032" x2="-1738.2889" y2="2012.2692" gradientTransform="matrix(-1 0 0 1 -1165.4333 0)">
					<stop  offset="0" style="stop-color:#FEBBBA"/>
					<stop  offset="1" style="stop-color:#FF928E"/>
				</linearGradient>
				<path style="fill:url(#SVGID_00000087397143059374861670000006014775442281875332_);" d="M791.152,2664.454
					c0,0-156.512,296.888-181.392,364.672c-24.879,67.784-33.595,124.332-33.929,129.687c-0.521,8.367-10.928,16.393-39.615,16.393
					c-14.805,0-22.055-5.935-25.605-11.679c-3.029-4.901-3.185-11.033-0.633-16.198c9.053-18.323,37.784-76.876,48.425-103.433
					c12.705-31.708,40.032-175.404,55.02-225.365c14.987-49.961,31.928-104.156,97.195-154.077
					C710.617,2664.454,755.42,2620.572,791.152,2664.454z"/>
				
					<linearGradient id="SVGID_00000054948722709874240680000002230229419289447837_" gradientUnits="userSpaceOnUse" x1="-2130.0027" y1="1976.9346" x2="-2064.4326" y2="2585.2825" gradientTransform="matrix(-1 0 0 1 -1165.4333 0)">
					<stop  offset="0" style="stop-color:#4042E2"/>
					<stop  offset="1" style="stop-color:#4F52FF"/>
				</linearGradient>
				<path style="fill:url(#SVGID_00000054948722709874240680000002230229419289447837_);" d="M890.023,2177.987
					c40.373-171.077-61.904-267.835-61.904-267.835c64.535-61.946,182.116-90.134,182.116-90.134s112.198,82.027,98.888,146.232
					c-7.801,37.63-78.865,225.399-78.865,225.399S964.548,2222.747,890.023,2177.987z"/>
				
					<linearGradient id="SVGID_00000145763772668997009910000010634051717884778431_" gradientUnits="userSpaceOnUse" x1="705.6479" y1="2436.3862" x2="1038.4045" y2="2436.3862">
					<stop  offset="0" style="stop-color:#4042E2"/>
					<stop  offset="1" style="stop-color:#4F52FF"/>
				</linearGradient>
				<path style="fill:url(#SVGID_00000145763772668997009910000010634051717884778431_);" d="M800.511,2262.683
					c16.43-49.498,89.513-84.695,89.513-84.695c74.524,44.76,140.236,13.661,140.236,13.661s14.737,56.328,4.565,108.676
					c-10.171,52.348-73.985,388.77-73.985,388.77c-100.549,20.374-255.192-20.498-255.192-20.498
					C769.694,2554.887,784.08,2312.181,800.511,2262.683z"/>
				
					<linearGradient id="SVGID_00000110456201407162355330000003314455327275685047_" gradientUnits="userSpaceOnUse" x1="-2147.623" y1="2011.7831" x2="-2122.99" y2="1831.5732" gradientTransform="matrix(-1 0 0 1 -1165.4333 0)">
					<stop  offset="0" style="stop-color:#FEBBBA"/>
					<stop  offset="1" style="stop-color:#FF928E"/>
				</linearGradient>
				<path style="fill:url(#SVGID_00000110456201407162355330000003314455327275685047_);" d="M936.887,1706.965l-32.824,147.439
					c-3.143,12.987,8.696,10.861,21.826,8.386c21.502-4.054,49.216-12.403,58.48-29.135c0.943-1.703,1.414-3.628,1.68-5.556
					l14.102-102.238c1.119-8.111-3.266-15.984-10.751-19.303l-27.212-12.066C951.709,1689.847,939.582,1695.825,936.887,1706.965z"
					/>
				
					<linearGradient id="SVGID_00000106841119928787236950000002118115527419318660_" gradientUnits="userSpaceOnUse" x1="472.3557" y1="2183.0374" x2="1028.5135" y2="1950.3755">
					<stop  offset="0" style="stop-color:#FEBBBA"/>
					<stop  offset="1" style="stop-color:#FF928E"/>
				</linearGradient>
				<path style="fill:url(#SVGID_00000106841119928787236950000002118115527419318660_);" d="M828.12,1910.152
					c0,0-316.823,313.63,142.65,188.436c0,0,5.24-39.645-1.599-38.962c-148.998,14.865-211.318,48.978-90.198-68.469
					c4.282-4.152,2.959-19.826,0.205-25.117C870.791,1949.929,851.61,1917.936,828.12,1910.152z"/>
				<g>
					
						<linearGradient id="SVGID_00000170974481700399112380000007092887908296026803_" gradientUnits="userSpaceOnUse" x1="-2293.1067" y1="1476.6521" x2="-2078.1724" y2="1094.1412" gradientTransform="matrix(-0.9809 -0.1943 -0.1943 0.9809 -936.3432 -99.2406)">
						<stop  offset="0" style="stop-color:#FEBBBA"/>
						<stop  offset="1" style="stop-color:#FF928E"/>
					</linearGradient>
					<path style="fill:url(#SVGID_00000170974481700399112380000007092887908296026803_);" d="M999.757,1572.558
						c0,0,34.945,23.655,49.961,83.895c15.016,60.24-9.387,81.849-34.4,80.524c-25.014-1.324-61.282-9.059-92.706-52.276
						C891.188,1641.485,953.965,1543.654,999.757,1572.558z"/>
					
						<linearGradient id="SVGID_00000149374922142514825960000001236868966415405208_" gradientUnits="userSpaceOnUse" x1="-2246.8831" y1="1143.5461" x2="-2139.4163" y2="1413.1245" gradientTransform="matrix(-0.9809 -0.1943 -0.1943 0.9809 -936.3432 -99.2406)">
						<stop  offset="0" style="stop-color:#09005D"/>
						<stop  offset="1" style="stop-color:#1A0F91"/>
					</linearGradient>
					<path style="fill:url(#SVGID_00000149374922142514825960000001236868966415405208_);" d="M954.301,1660.404
						c0,0-12.804-86.319,58.863-73.116l14.491,15.087c0,0,35.079-39.505-3.741-69.367c-38.82-29.862-92.689-22.215-122.492,32.15
						s-40.62,92.566-15.64,126.348c24.981,33.782,43.771,4.809,43.771,4.809s-11.456-29.238-1.951-41.784s21.77,7.296,21.77,7.296
						L954.301,1660.404z"/>
					
						<linearGradient id="SVGID_00000151514223885036305080000006954629801811015582_" gradientUnits="userSpaceOnUse" x1="-2247.3562" y1="1502.3625" x2="-2032.4221" y2="1119.8523" gradientTransform="matrix(-0.9809 -0.1943 -0.1943 0.9809 -936.3432 -99.2406)">
						<stop  offset="0" style="stop-color:#FEBBBA"/>
						<stop  offset="1" style="stop-color:#FF928E"/>
					</linearGradient>
					<path style="fill:url(#SVGID_00000151514223885036305080000006954629801811015582_);" d="M944.507,1667.796
						c0,0-6.322-44.41-29.003-31.715c-22.681,12.696,8.174,41.486,20.546,51.281L944.507,1667.796z"/>
				</g>
				<g>
					
						<linearGradient id="SVGID_00000084528161050442599390000003996800243897643936_" gradientUnits="userSpaceOnUse" x1="-2504.2678" y1="1282.7777" x2="-2305.74" y2="1734.4733" gradientTransform="matrix(-0.9776 -0.2106 -0.2106 0.9776 -915.0133 -113.5247)">
						<stop  offset="0" style="stop-color:#FEBBBA"/>
						<stop  offset="1" style="stop-color:#FF928E"/>
					</linearGradient>
					<path style="fill:url(#SVGID_00000084528161050442599390000003996800243897643936_);" d="M1346.605,1575.496
						c0.484,5.218-18.919,8.824-25.094-13.42c1.697-9.658,4.712-51.949,12.117-58.519c39.438-34.993,109.764-74.358,109.764-74.358
						c7.865,12.008-2.45,19.917-2.45,19.917l-35.105,23.691c3.662,12.129,9.006,22.852,9.61,36.699
						c0.458,10.486-3.416,20.753-10.376,28.707c-6.986,7.983-16.392,18.29-24.87,26.115
						C1364.154,1579.139,1346.605,1575.496,1346.605,1575.496z"/>
					
						<linearGradient id="SVGID_00000058573583961346098050000008189847885262022324_" gradientUnits="userSpaceOnUse" x1="1342.8259" y1="1522.1344" x2="1396.2839" y2="1522.1344">
						<stop  offset="0" style="stop-color:#FEBBBA"/>
						<stop  offset="1" style="stop-color:#FF928E"/>
					</linearGradient>
					<path style="fill:url(#SVGID_00000058573583961346098050000008189847885262022324_);" d="M1365.674,1558.256l-5.365-2.207
						c0.713-1.736,17.56-42.673,25.707-51.188c3.097-3.231,4.591-5.998,4.453-8.228c-0.069-1.207-0.667-2.399-1.801-3.614
						l-28.405,15.191l-12.547,19.644l-4.89-3.127l13.359-20.924l33.272-17.79l1.502,1.223c3.365,2.752,5.105,5.706,5.304,9.04
						c0.245,3.97-1.732,8.09-6.047,12.601C1384.077,1515.288,1370.418,1546.694,1365.674,1558.256z"/>
				</g>
			</g>
			<g>
				
					<linearGradient id="SVGID_00000093886346277013903670000018358141986263985309_" gradientUnits="userSpaceOnUse" x1="1086.9163" y1="1854.4495" x2="1267.2111" y2="2605.6799">
					<stop  offset="0" style="stop-color:#09005D"/>
					<stop  offset="1" style="stop-color:#1A0F91"/>
				</linearGradient>
				<path style="fill:url(#SVGID_00000093886346277013903670000018358141986263985309_);" d="M952.245,2163.281l76.675-267.766
					c0.87-3.04,3.464-5.256,6.604-5.623c13.892-1.62,54.146-6.171,100.624-10.102c55.983-4.735,120.997-8.572,159.847-5.308
					c5.523,0.464,8.861,6.306,6.405,11.274c-22.093,44.696-112.967,226.508-158.474,286.068c-1.508,1.973-3.839,3.127-6.322,3.104
					l-177.899-1.655C954.527,2173.223,950.82,2168.257,952.245,2163.281z"/>
				
					<linearGradient id="SVGID_00000015341495033855073690000000793960935363410317_" gradientUnits="userSpaceOnUse" x1="963.373" y1="2053.1899" x2="1065.524" y2="2053.1899">
					<stop  offset="0" style="stop-color:#FEBBBA"/>
					<stop  offset="1" style="stop-color:#FF928E"/>
				</linearGradient>
				<path style="fill:url(#SVGID_00000015341495033855073690000000793960935363410317_);" d="M970.769,2098.588
					c0,0-10.681-43.919-6.372-59.501c4.308-15.582,12.656-35.616,40.481-31.164c27.825,4.452,60.647,16.173,60.647,16.173
					s-1.658,20.296-22.805,13.748l13.113,10.147c0,0-1.874,16.251-19.737,7.569l12.197,13.457c0,0-7.671,13.347-20.813,4.786
					C1014.338,2065.242,1008.038,2103.876,970.769,2098.588z"/>
			</g>
		</g>
	</g>
</g>
</svg>
